<svg xmlns="http://www.w3.org/2000/svg" width="364.33" height="251.145" viewBox="0 0 364.33 251.145">
  <defs>
    <style>
      .cls-1 {
        fill: #3f3d56;
      }

      .cls-2 {
        fill: #ffb6b6;
      }

      .cls-3 {
        fill: #2f2e41;
      }

      .cls-4, .cls-9 {
        fill: #474888;
      }

      .cls-5 {
        fill: #6c63ff;
      }

      .cls-6, .cls-8 {
        fill: #cc8e34;
      }

      .cls-7 {
        fill: #f2f2f2;
      }

      .cls-8 {
        font-size: 20px;
        font-family: Alibaba-Regular, Alibaba;
      }

      .cls-9 {
        font-size: 22px;
      }
    </style>
  </defs>
  <g id="Group_3" data-name="Group 3" transform="translate(0 0)">
    <path id="Path_1" data-name="Path 1" class="cls-1" d="M0,489.806a31.961,31.961,0,0,1,.593,4.576H363.737a31.961,31.961,0,0,1,.593-4.576c0-.329-.264-.593-.593,3.391H.593C.264,489.213,0,489.477,0,489.806Z" transform="translate(0 -245.825)"/>
    <path id="Path_2" data-name="Path 2" class="cls-2" d="M422.055,290.956l4.657,89.079,11.637-1.4,6.375-92.086Z" transform="translate(-141.896 -143.867)"/>
    <path id="Path_3" data-name="Path 3" class="cls-3" d="M422.7,462.893s6.473,16.93-1.992,17.926-32.864,5.477-32.864-1S400.3,470.86,400.3,470.86s5.975-9.461,8.465-8.465,4.481,6.473,8.963,4.979S422.7,462.893,422.7,462.893Z" transform="translate(-124.721 -232.112)"/>
    <rect id="Rectangle_3" data-name="Rectangle 3" class="cls-2" width="14.44" height="18.424" transform="translate(280.803 47.787) rotate(180)"/>
    <circle id="Ellipse_1" data-name="Ellipse 1" class="cls-2" cx="16.557" cy="16.557" r="16.557" transform="translate(256.652 5.711)"/>
    <path id="Path_4" data-name="Path 4" class="cls-2" d="M444.847,163.9l1.992-16.432,9.461.5,1.992,19.42,7.838,35.963.019,0-.008,0,2.277,9.821a13.867,13.867,0,0,1,2.791,5.929c1.186,5.418-.648,10.419-4.095,11.173s-7.2-3.025-8.385-8.441a13.875,13.875,0,0,1,.062-6.554l-2.125-7.434L444.847,163.9Z" transform="translate(-153.339 -74.038)"/>
    <path id="Path_5" data-name="Path 5" class="cls-4" d="M378.791,84.969h17.428l16.93,8.963-5.975,35.852,6.971,22.407s-37.346,11.453-48.8,6.473l4.979-28.881-3.486-38.342Z" transform="translate(-113.425 -42.659)"/>
    <path id="Path_6" data-name="Path 6" class="cls-5" d="M450.328,102.9s5.975-1.992,6.971,1.494,3.486,24.4,3.486,24.4l-14.938.5Z" transform="translate(-153.841 -51.376)"/>
    <path id="Path_7" data-name="Path 7" class="cls-2" d="M284.2,189.211a10.8,10.8,0,0,1-1.758-.14c-2.3-.381-3.961-1.5-4.665-3.151s-.364-3.621.957-5.547a13.618,13.618,0,0,1,5.9-4.591,14.225,14.225,0,0,1,6.5-1.186l20.62-10.732,1.5-15.451,11.411-4.668,1.586,21.018a8.144,8.144,0,0,1-5.017,8.155l-26.025,11.2a14.191,14.191,0,0,1-5.361,3.872,14.568,14.568,0,0,1-5.642,1.218Z" transform="translate(-69.282 -72.169)"/>
    <path id="Path_8" data-name="Path 8" class="cls-4" d="M361.625,96.938s-9.959-3.486-12.947,7.469a64.378,64.378,0,0,0-1.992,20.914l16.93-1.494Z" transform="translate(-103.976 -48.404)"/>
    <g id="Group_1" data-name="Group 1" transform="translate(203.084 80.631)">
      <path id="Path_9" data-name="Path 9" class="cls-6" d="M267.267,170.912a8.982,8.982,0,0,0,15.68,5.985.017.017,0,0,1,.01,0,8.9,8.9,0,0,0,2.121-4.347,4.408,4.408,0,0,0,.085-.523,8.968,8.968,0,0,0,.07-1.051v-.06a8.982,8.982,0,0,0-16.731-4.541,7.717,7.717,0,0,0-.627,1.31,8.815,8.815,0,0,0-.607,3.232Z" transform="translate(-267.267 -161.929)"/>
      <path id="Path_10" data-name="Path 10" class="cls-7" d="M268.486,171.164a8.845,8.845,0,0,0,1.609-.682c.2-.1.363-.2.508-.294a1.763,1.763,0,0,1,.757-.314,2.6,2.6,0,0,1,1.658.478,4.485,4.485,0,0,1,1.583,2.007,7.839,7.839,0,0,1,.722,2.38,4.97,4.97,0,0,1,.035,1.334,3.378,3.378,0,0,0,.085,1.255,5.426,5.426,0,0,0,2.062,2.923,5.221,5.221,0,0,0,3.127,1.106c.14,0,.274-.005.408-.015a4.893,4.893,0,0,0,2.52-.961.017.017,0,0,1,.01,0,8.9,8.9,0,0,0,2.121-4.347.771.771,0,0,0-.01-.11.71.71,0,0,1,0-.383c.01,0,.03-.01.094-.03a8.982,8.982,0,0,0,.07-1.051,1.54,1.54,0,0,0-.936.453,1.431,1.431,0,0,0-.219,1.135,4.6,4.6,0,0,1-1.588,3.431,3.916,3.916,0,0,1-2.146.871,4.186,4.186,0,0,1-2.858-.9,4.409,4.409,0,0,1-1.688-2.365,2.32,2.32,0,0,1-.055-.926,6.118,6.118,0,0,0-.045-1.559,8.995,8.995,0,0,0-.816-2.689,5.429,5.429,0,0,0-1.947-2.4,3.557,3.557,0,0,0-2.31-.622,2.7,2.7,0,0,0-1.151.448c-.129.08-.274.169-.453.264s-.358.184-.518.254A7.719,7.719,0,0,0,268.486,171.164Z" transform="translate(-267.879 -165.412)"/>
    </g>
    <g id="Group_2" data-name="Group 2" transform="translate(305.52 63.482)">
      <path id="Path_11" data-name="Path 11" class="cls-1" d="M479.292,266.1l-6.307-1.539,12.365-41.011-1.937-8.492,13.561,3.388-6.572,7.281Z" transform="translate(-472.985 -171.452)"/>
      <path id="Path_12" data-name="Path 12" class="cls-1" d="M517.043,157.146c4.232-12.938.034-25.922-9.376-29S487.2,133.063,482.967,146s-.034,25.922,9.376,29S512.811,170.085,517.043,157.146Zm-1.893-.619c-3.762,11.5-13.591,18.606-21.955,15.871s-12.1-14.276-8.334-25.777,13.591-18.606,21.955-15.871S518.911,145.026,515.15,156.527Z" transform="translate(-477.169 -127.488)"/>
    </g>
    <path id="Path_13" data-name="Path 13" class="cls-3" d="M421.248,35.316l2.873,7.57,6.958,12.483A73.891,73.891,0,0,1,440.13,98h0l-18.471-.908-2.138-6.052a126.909,126.909,0,0,1-6.705-47.607c.319-7.738-3.058-13.615-10.469-17.459l18.9,9.347Z" transform="translate(-132.001 -13.038)"/>
    <path id="Path_14" data-name="Path 14" class="cls-6" d="M403.937,27.869,395.97,20.4s-10.457-3.486-14.938-6.473c-2.836-1.89-7.066.206-9.792,2a5.658,5.658,0,0,1-5.825.254h0a2.985,2.985,0,0,1-1.35-3.709h0a11.417,11.417,0,0,1,12.984-7.012h0l3.93-2.807a14.254,14.254,0,0,1,13.9-1.5l2.577,1.1a14.254,14.254,0,0,1,6.352,5.358h0a14.254,14.254,0,0,1,2.027,10.452l-1.9,9.8Z" transform="translate(-112.678 0)"/>
    <path id="Path_15" data-name="Path 15" class="cls-2" d="M350.3,295.936l-4.589,89.083,11.719-.184L373.3,293.9Z" transform="translate(-103.567 -147.557)"/>
    <path id="Path_16" data-name="Path 16" class="cls-6" d="M405.935,212.394A68.754,68.754,0,0,1,414.9,249.74s-27.885,17.428-62.741,6.971c0,0,3.486-30.872,7.967-35.852Z" transform="translate(-106.803 -106.634)"/>
    <path id="Path_17" data-name="Path 17" class="cls-3" d="M338.7,462.893s6.473,16.93-1.992,17.926-32.864,5.477-32.864-1S316.3,470.86,316.3,470.86s5.975-9.461,8.465-8.465,4.481,6.473,8.963,4.979S338.7,462.893,338.7,462.893Z" transform="translate(-82.548 -232.112)"/>
    <text id="برای_تغییر_دنیای_کسب_و_کارت_آماده_ای_" data-name="برای
تغییر دنیای کسب و کارت
 آماده ای؟" class="cls-8" transform="translate(225.33 145.145)"><tspan x="-34.5" y="0">برای</tspan><tspan y="0"></tspan><tspan class="cls-9"><tspan x="-219.56" y="32">تغییر دنیای کسب و کارت</tspan><tspan y="32"></tspan></tspan><tspan x="-79.56" y="63"> </tspan><tspan y="63">آماده ای؟</tspan></text>
  </g>
</svg>
