<svg xmlns="http://www.w3.org/2000/svg" width="223.53" height="193.483" viewBox="0 0 223.53 193.483">
  <g id="Group_10" data-name="Group 10" transform="translate(0 0)">
    <path id="Path_27" data-name="Path 27" d="M0,631.126a.362.362,0,0,0,.364.364h222.8a.364.364,0,0,0,0-.727H.364A.362.362,0,0,0,0,631.126Z" transform="translate(0 -438.061)" fill="#3f3d56"/>
    <path id="Path_28" data-name="Path 28" d="M416.443,139.266l1.222,7.027-13.137,2.139,3.055-9.776Z" transform="translate(-280.942 -96.295)" fill="#a0616a"/>
    <path id="Path_29" data-name="Path 29" d="M494.274,155.17c2.647,1.186,3.28,5.519,1.415,9.677a11.405,11.405,0,0,1-3.245,4.3l-2.667,7.119c-1.749,8.487-5.732,17.422-11.217,16.729-7.763-.98-10.209-10.416-10.209-10.416L478.8,178.5l4.664-8.992,1.59-3.669a11.4,11.4,0,0,1,1.053-5.282c1.865-4.16,5.521-6.569,8.168-5.383Z" transform="translate(-325.267 -107.555)" fill="#a0616a"/>
    <path id="Path_30" data-name="Path 30" d="M245.637,395.015l-7.244-5.354.058-.115,40.362-80.417.076-.013,32.5-5.519,6.769,15.078,17.7,24.889A9.9,9.9,0,0,1,337.7,349.4l-.286,44.334-10.982.314-.015-.141-3.831-35.845a9.7,9.7,0,0,0-3.718-6.63l-21.606-16.6-51.629,60.183Z" transform="translate(-165.562 -210.846)" fill="#cc8e34"/>
    <path id="Path_31" data-name="Path 31" d="M218.473,587.155s-3.666.611-4.888,2.75a81.3,81.3,0,0,1-4.888,6.721s-2.75,5.194,3.666,4.583,8.86-3.361,8.86-3.361l2.75-7.638Z" transform="translate(-144.532 -407.776)" fill="#2f2e41"/>
    <path id="Path_32" data-name="Path 32" d="M532.527,587.155s3.666.611,4.888,2.75a81.3,81.3,0,0,0,4.888,6.721s2.75,5.194-3.666,4.583-8.86-3.361-8.86-3.361l-2.75-7.638Z" transform="translate(-366.018 -407.776)" fill="#2f2e41"/>
    <path id="Path_33" data-name="Path 33" d="M375.152,159.932l21.691-4.277,12.22,3.972-3.361,45.52-34.675,1.375Z" transform="translate(-257.677 -108.102)" fill="#474888"/>
    <path id="Path_34" data-name="Path 34" d="M469.739,165.317l4.725,7.137,1.1,17.6-14.033,1.065.378-22.8Z" transform="translate(-320.528 -114.812)" fill="#474888"/>
    <path id="Path_35" data-name="Path 35" d="M501.593,216.244l-5.678-2.256L488.7,227.359l6.593,3.288Z" transform="translate(-339.396 -148.614)" fill="#a0616a"/>
    <path id="Path_36" data-name="Path 36" d="M475.633,56.251a3.467,3.467,0,0,1-3.193-2.111l-4.307-10.118a107.556,107.556,0,0,0-5.539-11.163l-.9-1.576c-.619-.952-15.274-23.505-15.971-25.267-.526-1.328,1.045-4.052,1.112-4.167l.018-.025a5.477,5.477,0,0,1,7.781-.312C458.789,5,465.781,28.147,466.076,29.131l.189.476a68.792,68.792,0,0,0,6.481,12.466l5.789,8.8a3.47,3.47,0,0,1-2.9,5.379Z" transform="translate(-309.478 0)" fill="#3f3d56"/>
    <path id="Path_37" data-name="Path 37" d="M406.134,131.033l6.821.383,13.1-13.824,5.12-6.087a11.4,11.4,0,0,1,2.522-4.76c2.978-3.452,7.171-4.713,9.367-2.819s1.563,6.227-1.415,9.677a11.406,11.406,0,0,1-4.341,3.193l-1.263,1.665-14.462,20.328a10.777,10.777,0,0,1-11.571,4.162l-8.852-2.372,4.97-9.546Z" transform="translate(-278.606 -71.564)" fill="#a0616a"/>
    <path id="Path_38" data-name="Path 38" d="M372.51,190.013l-10.525-6.761a8.089,8.089,0,1,1,8.889-13.517l10.335,6.956-8.7,13.321Z" transform="translate(-248.81 -116.921)" fill="#474888"/>
    <g id="Group_9" data-name="Group 9" transform="translate(113.899 20.151)">
      <circle id="Ellipse_2" data-name="Ellipse 2" cx="10.784" cy="10.784" r="10.784" transform="translate(4.102 3.833)" fill="#a0616a"/>
      <path id="Path_39" data-name="Path 39" d="M414.182,96.056l-.931-1.552s4.078-2.749.709-4.345-3.9-5.5-3.9-5.5-9.842-2.836-9.31-4.964-.976-3.635,1.507-4.522,13.566,0,14.807,2.569,2.484,9.664,1.863,10.639-4.743,7.67-4.743,7.67Z" transform="translate(-392.201 -72.129)" fill="#2f2e41"/>
      <path id="Path_40" data-name="Path 40" d="M392.007,86.891l-10.02-6.649s-12.945-3.988-8.068,3.636l4.123.842S389.259,87.335,392.007,86.891Z" transform="translate(-372.821 -75.156)" fill="#cc8e34"/>
      <path id="Path_41" data-name="Path 41" d="M406.1,76.19l10.463,7.89s6.116-10.906-3.46-16.314-15.649,3.061-15.649,3.061l2.527,2.7L406.1,76.19Z" transform="translate(-389.93 -65.962)" fill="#cc8e34"/>
    </g>
    <path id="Path_42" data-name="Path 42" d="M179.658,27.591a5.961,5.961,0,1,0,3.119-5.246q-.215.119-.422.257a5.944,5.944,0,0,0-2.56,3.727,3.991,3.991,0,0,0-.092.541,5.573,5.573,0,0,0-.046.721Z" transform="translate(-122.044 -5.433)" fill="#cc8e34"/>
    <path id="Path_43" data-name="Path 43" d="M179.808,28.509c.095.1.192.217.3.345a7.24,7.24,0,0,1,.706,1c.174.284.394.639.825,1.237a11.534,11.534,0,0,0,2.029,2.417,4.9,4.9,0,0,0,2.817,1.332c.089.006.177.006.263.006a4.622,4.622,0,0,0,3.11-1.35,4.838,4.838,0,0,0,1.411-2.957,4.894,4.894,0,0,0-.874-3.229,6.027,6.027,0,0,0-3.183-2,9.906,9.906,0,0,0-1.821-.446,6.31,6.31,0,0,1-2.19-.694c-.125-.067-.229-.125-.318-.18q-.215.119-.422.257l.07.043c.119.07.266.156.467.263a6.726,6.726,0,0,0,2.319.739,9.317,9.317,0,0,1,1.751.428,5.592,5.592,0,0,1,2.976,1.848,4.453,4.453,0,0,1,.794,2.93,4.408,4.408,0,0,1-1.283,2.689,4.109,4.109,0,0,1-3.04,1.222,4.549,4.549,0,0,1-2.576-1.234,11.3,11.3,0,0,1-1.946-2.331c-.425-.59-.638-.938-.809-1.216a7.665,7.665,0,0,0-.739-1.042c-.2-.247-.385-.446-.544-.611a3.991,3.991,0,0,0-.092.541Z" transform="translate(-121.876 -6.658)" fill="#e6e6e6"/>
  </g>
</svg>
